<?xml version="1.0" encoding="iso-8859-1"?>
<!-- Generator: Adobe Illustrator 19.0.0, SVG Export Plug-In . SVG Version: 6.00 Build 0)  -->
<svg xmlns="http://www.w3.org/2000/svg" xmlns:xlink="http://www.w3.org/1999/xlink" version="1.1" id="Layer_1" x="0px" y="0px" viewBox="0 0 512 512" style="enable-background:new 0 0 512 512;" xml:space="preserve" width="100pt" height="100pt">
<g>
	<g>
		<g>
			<g>
				<g>
					<g>
						<g>
							<g>
								<g>
									<g>
										<g>
											<g>
												<path style="fill:#F2F2F2;" d="M488.352,436.338H91.769c-8.907,0-16.128-7.221-16.128-16.128V23.628              c0-8.907,7.221-16.128,16.128-16.128h396.583c8.907,0,16.128,7.221,16.128,16.128V420.21              C504.479,429.117,497.259,436.338,488.352,436.338z"/>
												<path style="fill:#CDD6DF;" d="M488.352,7.5h-46.349c8.907,0,16.128,7.221,16.128,16.128V420.21              c0,8.907-7.221,16.128-16.128,16.128h46.349c8.907,0,16.128-7.221,16.128-16.128V23.628              C504.479,14.721,497.259,7.5,488.352,7.5z"/>
												<path style="fill:#426175;" d="M488.352,7.5H91.769c-8.907,0-16.128,7.221-16.128,16.128v48.087h428.838V23.628              C504.479,14.721,497.259,7.5,488.352,7.5z"/>
												<path style="fill:#2C4456;" d="M504.479,71.714V23.628c0-8.907-7.221-16.128-16.128-16.128h-46.346              c8.906,0.002,16.125,7.222,16.125,16.128v48.087H504.479z"/>
											</g>
										</g>
									</g>
								</g>
								<g>
									<g>
										<circle style="fill:#46D1C0;" cx="388.871" cy="39.607" r="8.118"/>
										<circle style="fill:#46D1C0;" cx="427.79" cy="39.607" r="8.118"/>
										<circle style="fill:#46D1C0;" cx="466.709" cy="39.607" r="8.118"/>
									</g>
								</g>
							</g>
						</g>
					</g>
				</g>
			</g>
		</g>
		<path style="fill:#FED066;" d="M317.747,275.837c-1.338,0-2.64-0.406-3.767-1.177l-23.92-16.337l-23.92,16.337    c-1.126,0.769-2.429,1.177-3.766,1.177c-2.099,0-4.11-1.012-5.379-2.707c-1.265-1.689-1.646-3.831-1.047-5.875l8.147-27.798    l-22.931-17.701c-2.267-1.751-3.159-4.641-2.274-7.364c0.885-2.723,3.306-4.536,6.168-4.619l28.955-0.842l9.748-27.278    c0.964-2.697,3.436-4.439,6.3-4.439c2.864,0,5.336,1.742,6.3,4.438l9.748,27.279l28.955,0.842    c2.862,0.083,5.283,1.895,6.168,4.619c0.885,2.722-0.007,5.613-2.274,7.364l-22.932,17.701l8.147,27.798    c0.6,2.044,0.218,4.185-1.047,5.874C321.857,274.824,319.846,275.837,317.747,275.837z"/>
		<path style="fill:#FED066;" d="M192.178,275.837c-1.338,0-2.64-0.406-3.767-1.177l-23.919-16.337l-23.92,16.337    c-1.126,0.769-2.429,1.177-3.767,1.177c-2.099,0-4.11-1.012-5.379-2.707c-1.265-1.689-1.646-3.831-1.047-5.875l8.148-27.798    l-22.931-17.701c-2.267-1.75-3.159-4.64-2.275-7.364c0.885-2.723,3.306-4.536,6.169-4.619l28.955-0.842l9.748-27.278    c0.964-2.697,3.436-4.439,6.3-4.439c2.863,0,5.335,1.742,6.299,4.438l9.748,27.279l28.955,0.842    c2.862,0.083,5.283,1.896,6.168,4.619c0.885,2.723-0.007,5.614-2.274,7.364l-22.931,17.701l8.148,27.798    c0.599,2.045,0.217,4.185-1.047,5.875C196.288,274.824,194.277,275.837,192.178,275.837z"/>
		<path style="fill:#FED066;" d="M447.359,275.837c-1.338,0-2.64-0.406-3.767-1.177l-23.92-16.337l-23.92,16.337    c-1.126,0.769-2.429,1.177-3.767,1.177c-2.099,0-4.11-1.012-5.379-2.707c-1.265-1.689-1.646-3.831-1.047-5.875l8.148-27.798    l-22.931-17.701c-2.267-1.75-3.159-4.64-2.275-7.364c0.885-2.723,3.306-4.536,6.169-4.619l28.955-0.842l9.748-27.278    c0.964-2.697,3.436-4.439,6.3-4.439c2.863,0,5.335,1.742,6.299,4.438l9.748,27.279l28.955,0.842    c2.862,0.083,5.283,1.896,6.168,4.619c0.885,2.723-0.007,5.614-2.274,7.364l-22.931,17.701l8.148,27.798    c0.6,2.044,0.218,4.185-1.047,5.874C451.469,274.824,449.458,275.837,447.359,275.837z"/>
		<g>
			<g>
				<g>
					<path style="fill:#FFE8C2;" d="M224.099,358.049l-5.876-5.419c-5.075-4.68-12.983-4.36-17.663,0.715l-1.529,1.658l0,0       l6.961-7.547c4.68-5.075,4.36-12.983-0.715-17.664l-5.876-5.419c-5.075-4.68-12.983-4.36-17.663,0.714l4.316-4.68       c4.68-5.075,4.36-12.983-0.715-17.663l-5.876-5.419c-5.075-4.68-12.983-4.36-17.664,0.715l-1.788,1.939l0,0l51.527-55.871       c6.177-6.697,5.755-17.134-0.943-23.311l0,0c-6.697-6.177-17.134-5.755-23.311,0.943l-65.092,70.581l0,0l-32.299,35.023       l-5.049-42.724c-1.171-9.905-10.934-16.406-20.525-13.664h0c-6.919,1.978-11.702,8.287-11.738,15.483l-0.479,96.203       c0.725,2.742,0,5.663-1.923,7.748l-14.333,15.542l73.885,68.14l16.482-17.871c0.618-0.67,1.341-1.233,2.142-1.668l30.03-16.299       c11.626-6.31,22.134-14.492,31.102-24.216l7.955-8.625l0,0l27.371-29.678C229.494,370.637,229.174,362.729,224.099,358.049z"/>
					<g>
						<path style="fill:#EFD5AF;" d="M224.099,358.049l-5.876-5.419c-5.075-4.68-12.983-4.36-17.663,0.715l-1.529,1.658l6.961-7.547        c4.68-5.075,4.36-12.983-0.715-17.664l-5.767-5.318l-39.814,43.171l-7.955,8.625c-8.968,9.724-19.476,17.905-31.102,24.216        L89.4,417.44l-18.877,20.469l39.21,36.161l16.482-17.871c0.618-0.67,1.341-1.233,2.142-1.668l30.03-16.299        c11.626-6.31,22.134-14.492,31.102-24.216l7.955-8.625l27.37-29.678C229.494,370.637,229.174,362.729,224.099,358.049z"/>
					</g>
					<path style="fill:#FD715C;" d="M114.115,486.466l-14.216,15.415c-3.045,3.302-8.19,3.51-11.492,0.465L10.14,430.165       c-3.318-3.06-3.509-8.236-0.427-11.533l14.323-15.316c3.053-3.264,8.168-3.454,11.453-0.424l78.161,72.083       C116.951,478.02,117.16,483.165,114.115,486.466z"/>
				</g>
			</g>
		</g>
	</g>
	<g>
		<path d="M270.657,32.107H113.055c-4.142,0-7.5,3.357-7.5,7.5s3.358,7.5,7.5,7.5h157.602c4.142,0,7.5-3.357,7.5-7.5    S274.799,32.107,270.657,32.107z"/>
		<path d="M348.364,212.074c-1.877-5.775-7.013-9.621-13.083-9.798l-23.834-0.692l-8.024-22.455    c-2.044-5.719-7.29-9.414-13.362-9.414c-6.073,0-11.318,3.696-13.362,9.415l-8.024,22.454l-23.833,0.692    c-6.071,0.177-11.207,4.022-13.083,9.797c-1.878,5.775,0.015,11.905,4.824,15.619l18.876,14.571l-6.706,22.88    c-1.271,4.333-0.455,8.882,2.24,12.481c2.678,3.577,6.934,5.712,11.383,5.712c2.853,0,5.618-0.859,7.996-2.483l19.69-13.449    l19.687,13.447c2.378,1.626,5.145,2.485,8,2.485c4.45,0,8.705-2.136,11.382-5.712c2.695-3.599,3.512-8.147,2.241-12.479    l-6.706-22.882l18.879-14.573C348.349,223.978,350.241,217.848,348.364,212.074z M311.443,233.521    c-2.445,1.888-3.483,5.081-2.614,8.046l7.509,25.622l-22.048-15.06c-1.275-0.871-2.752-1.307-4.23-1.307    c-1.477,0-2.955,0.436-4.23,1.307l-22.048,15.059l7.51-25.621c0.869-2.965-0.169-6.158-2.614-8.046l-21.137-16.316l26.689-0.775    c3.088-0.09,5.805-2.064,6.845-4.973l8.985-25.144l8.985,25.143c1.04,2.909,3.756,4.884,6.845,4.974l26.689,0.775L311.443,233.521    z"/>
		<path d="M477.975,212.074c-1.877-5.775-7.013-9.621-13.083-9.798l-23.834-0.692l-8.024-22.455    c-2.044-5.719-7.289-9.414-13.362-9.414c-6.073,0-11.318,3.696-13.362,9.415l-8.024,22.454l-23.833,0.692    c-6.072,0.177-11.208,4.022-13.085,9.799c-1.876,5.776,0.018,11.906,4.825,15.617l18.876,14.571l-6.706,22.88    c-1.271,4.333-0.455,8.882,2.239,12.48c2.678,3.577,6.934,5.713,11.384,5.713c2.853,0,5.619-0.859,7.997-2.483l19.69-13.449    l19.688,13.447c2.378,1.626,5.145,2.485,8,2.485c4.449,0,8.704-2.136,11.382-5.712c2.695-3.599,3.512-8.147,2.241-12.479    l-6.707-22.882l18.876-14.571C477.959,223.981,479.853,217.851,477.975,212.074z M441.054,233.521    c-2.445,1.888-3.483,5.081-2.614,8.046l7.51,25.622l-22.048-15.06c-2.551-1.742-5.909-1.742-8.46,0l-22.048,15.06l7.51-25.622    c0.869-2.965-0.169-6.158-2.614-8.046l-21.136-16.316l26.689-0.775c3.088-0.09,5.805-2.064,6.845-4.973l8.985-25.144l8.985,25.143    c1.04,2.909,3.756,4.884,6.845,4.974l26.688,0.775L441.054,233.521z"/>
		<path d="M488.352,0H91.769C78.741,0,68.141,10.6,68.141,23.628v217.561c0,4.143,3.358,7.5,7.5,7.5s7.5-3.357,7.5-7.5V79.214    h413.838V420.21c0,4.758-3.87,8.628-8.627,8.628H197.905c-4.142,0-7.5,3.357-7.5,7.5s3.358,7.5,7.5,7.5h290.446    c13.028,0,23.627-10.6,23.627-23.628V23.628C511.979,10.6,501.38,0,488.352,0z M83.141,64.214V23.628    c0-4.758,3.871-8.628,8.628-8.628h396.583c4.757,0,8.627,3.87,8.627,8.628v40.586H83.141z"/>
		<path d="M195.002,419.101l35.324-38.304c3.623-3.927,5.499-9.029,5.282-14.367c-0.216-5.338-2.498-10.272-6.425-13.895    l-5.875-5.418c-2.028-1.871-4.37-3.275-6.896-4.167c0.312-1.554,0.439-3.155,0.374-4.778c-0.216-5.338-2.498-10.272-6.424-13.893    l-5.876-5.421c-2.3-2.121-4.969-3.6-7.782-4.443c0.766-6.188-1.356-12.645-6.279-17.186l-5.875-5.418    c-1.257-1.159-2.634-2.14-4.101-2.93l6.168-6.688c1.752,0.752,3.637,1.144,5.562,1.144c4.448,0,8.702-2.135,11.383-5.713    c2.693-3.598,3.51-8.146,2.24-12.479l-0.835-2.85l12.086-13.105c6.552-7.105,7.989-17.135,4.498-25.523    c2.035-3.42,2.544-7.592,1.244-11.594c-1.877-5.775-7.013-9.621-13.083-9.798l-23.834-0.692l-8.024-22.455    c-2.044-5.719-7.289-9.414-13.362-9.414c-6.073,0-11.318,3.696-13.362,9.415l-8.024,22.454l-23.833,0.692    c-6.072,0.177-11.208,4.022-13.084,9.799c-1.876,5.776,0.018,11.906,4.825,15.617l18.876,14.571l-6.706,22.88    c-1.271,4.332-0.455,8.881,2.24,12.481c0.018,0.024,0.036,0.048,0.054,0.071l-30.047,32.58l-3.136-26.54    c-0.817-6.908-4.606-13.081-10.397-16.937c-5.791-3.856-12.949-4.971-19.637-3.058c-10.062,2.875-17.125,12.192-17.177,22.657    l-0.479,96.203c-0.003,0.659,0.081,1.316,0.249,1.954c0.07,0.266,0.001,0.545-0.185,0.746l-8.5,9.217    c-5.889-2.526-13.002-1.254-17.609,3.673L4.235,413.51c-2.865,3.064-4.358,7.062-4.203,11.254    c0.155,4.193,1.939,8.069,5.024,10.915l78.267,72.18c2.91,2.685,6.646,4.142,10.583,4.142c0.215,0,0.431-0.004,0.647-0.013    c4.172-0.169,8.029-1.952,10.859-5.021l14.216-15.415c2.831-3.068,4.297-7.057,4.128-11.229c-0.113-2.802-0.955-5.462-2.426-7.765    l10.398-11.274c0.059-0.064,0.129-0.118,0.206-0.16l30.031-16.299C174.341,438.104,185.457,429.45,195.002,419.101z     M143.109,233.521l-21.136-16.316l26.688-0.775c3.088-0.09,5.805-2.064,6.845-4.973l8.986-25.144l8.985,25.143    c1.04,2.909,3.756,4.884,6.845,4.974l1.617,0.047c-0.055,0.059-0.111,0.118-0.166,0.178l-42.139,45.692l6.09-20.779    C146.592,238.602,145.554,235.408,143.109,233.521z M108.602,481.381L108.602,481.381l-14.217,15.415    c-0.044,0.048-0.178,0.193-0.439,0.203c-0.254,0.027-0.406-0.122-0.454-0.167l-78.267-72.18c-0.048-0.044-0.194-0.179-0.204-0.442    s0.126-0.408,0.17-0.455l14.323-15.317c0.124-0.133,0.292-0.199,0.461-0.199c0.154,0,0.308,0.055,0.429,0.167l1.669,1.539    c0.013,0.012,0.025,0.024,0.038,0.036c0.013,0.012,0.026,0.023,0.039,0.035l73.805,68.066c0.014,0.013,0.027,0.026,0.041,0.039    c0.015,0.013,0.029,0.026,0.044,0.04l2.524,2.328c0.048,0.044,0.193,0.178,0.203,0.44    C108.779,481.188,108.646,481.333,108.602,481.381z M154.809,431.64l-30.032,16.3c-1.528,0.829-2.899,1.897-4.076,3.174    l-10.048,10.895l-62.858-57.97l7.9-8.566c3.418-3.707,4.841-8.73,3.913-13.632l0.475-95.366c0.019-3.838,2.609-7.255,6.299-8.31    c2.491-0.711,5.048-0.313,7.203,1.122s3.509,3.641,3.813,6.211l5.049,42.725c0.344,2.908,2.349,5.351,5.134,6.254    c2.784,0.905,5.843,0.104,7.827-2.049l97.392-105.604c1.629-1.767,3.849-2.793,6.25-2.891c2.394-0.098,4.695,0.746,6.462,2.376    c0.24,0.221,0.464,0.452,0.674,0.692c0.049,0.068,0.098,0.135,0.15,0.201c0.108,0.14,0.221,0.276,0.337,0.406    c2.489,3.398,2.314,8.203-0.646,11.413l-14.883,16.138c-0.049,0.051-0.096,0.103-0.143,0.156l-11.125,12.063    c-0.048,0.05-0.095,0.101-0.141,0.153l-23.403,25.376c-0.015,0.016-0.029,0.031-0.044,0.048l-1.787,1.938l0,0.001    c-2.808,3.045-2.616,7.789,0.429,10.598c3.045,2.808,7.79,2.615,10.598-0.429l1.809-1.962c0.904-0.968,2.128-1.53,3.453-1.584    c1.336-0.039,2.61,0.415,3.592,1.321l5.875,5.418c2.027,1.87,2.155,5.039,0.286,7.066l-4.299,4.661    c-0.006,0.007-0.011,0.013-0.017,0.019l0,0.001c-2.808,3.045-2.616,7.789,0.429,10.598c3.045,2.807,7.79,2.615,10.598-0.429    c1.869-2.026,5.039-2.154,7.065-0.287l5.877,5.421c0.981,0.905,1.552,2.139,1.606,3.473c0.054,1.334-0.415,2.61-1.321,3.592    l-6.96,7.547c-2.808,3.045-2.617,7.789,0.428,10.598c3.044,2.808,7.789,2.618,10.597-0.427l1.531-1.659    c0.905-0.981,2.139-1.552,3.473-1.606c1.333-0.035,2.61,0.415,3.592,1.321l5.876,5.419c0.982,0.905,1.552,2.139,1.606,3.474    c0.054,1.334-0.415,2.609-1.321,3.591l-35.325,38.304C175.548,418.068,165.735,425.709,154.809,431.64z"/>
	</g>
</g>















</svg>
