<?xml version="1.0" standalone="no"?>
<!DOCTYPE svg PUBLIC "-//W3C//DTD SVG 20010904//EN"
 "http://www.w3.org/TR/2001/REC-SVG-20010904/DTD/svg10.dtd">
<svg version="1.0" xmlns="http://www.w3.org/2000/svg"
 width="1116.000000pt" height="440.000000pt" viewBox="0 0 1116.000000 440.000000"
 preserveAspectRatio="xMidYMid meet">

<g transform="translate(0.000000,440.000000) scale(0.100000,-0.100000)"
fill="#000000" stroke="none">
<path d="M887 4103 c20 -1331 20 -1327 7 -1372 -9 -29 -10 -50 -4 -62 6 -10 9
-159 9 -356 -1 -186 -4 -327 -6 -313 -3 14 -9 30 -15 35 -7 7 -9 3 -5 -12 3
-13 0 -26 -5 -30 -7 -3 -8 -1 -4 5 4 7 2 12 -4 12 -6 0 -13 -7 -16 -15 -4 -8
-11 -15 -16 -15 -6 0 -8 6 -5 13 2 6 -1 18 -8 24 -10 10 -14 9 -19 -3 -4 -10
-2 -13 6 -8 7 5 8 3 3 -5 -4 -7 -15 -11 -25 -8 -21 5 -60 -26 -60 -47 0 -8 -6
-16 -13 -19 -9 -3 -12 -16 -9 -35 5 -38 -58 -236 -123 -387 -8 -16 -17 -43
-21 -60 -4 -16 -10 -35 -15 -41 -5 -5 -15 -35 -23 -65 -8 -30 -31 -106 -51
-169 -20 -63 -41 -132 -46 -153 -10 -40 -58 -165 -69 -182 -8 -12 -24 -67 -22
-77 1 -4 -10 -42 -23 -85 -41 -127 -44 -183 -11 -183 8 0 19 -6 25 -14 9 -11
8 -14 -5 -12 -9 0 -19 -5 -21 -11 -3 -9 8 -13 37 -13 24 0 39 -4 35 -10 -3 -5
-11 -7 -19 -4 -7 3 -26 0 -42 -7 l-29 -11 24 -11 c18 -9 25 -9 28 0 3 7 11 9
19 6 22 -8 -125 -64 -152 -57 -26 7 -94 -20 -94 -38 0 -7 -20 -25 -45 -40 -32
-20 -44 -34 -47 -55 -5 -45 14 -93 37 -94 11 0 34 -2 50 -3 39 -4 144 -8 170
-6 l20 1 -20 16 c-18 14 -18 15 -2 9 10 -3 23 -6 28 -6 6 0 5 -9 -1 -21 -7
-11 -9 -23 -6 -26 3 -3 -1 -15 -9 -27 -8 -11 -15 -29 -15 -39 0 -16 10 -17
128 -15 l127 3 1 38 c1 56 32 89 133 141 94 48 264 170 316 225 29 31 30 35
27 112 -2 61 0 79 11 79 8 0 42 14 76 31 l61 31 338 -12 c185 -6 365 -15 398
-21 57 -9 65 -7 114 18 32 16 54 23 58 17 31 -46 122 -192 122 -195 0 -2 -12
-4 -27 -5 -16 0 -116 -4 -223 -8 -107 -5 -230 -9 -272 -10 -42 -1 -80 -5 -84
-9 -4 -4 4 -7 17 -7 14 0 35 -7 47 -16 12 -8 26 -13 31 -10 4 3 138 7 297 9
187 3 302 8 327 16 38 12 47 25 23 34 -16 6 -76 110 -76 133 0 10 -6 14 -14
11 -10 -4 -13 -1 -10 8 3 7 -6 34 -21 59 -22 38 -24 48 -14 65 10 15 10 25 1
45 -12 28 -32 35 -32 12 0 -10 -7 -12 -21 -9 -20 6 -20 7 -5 18 9 7 16 16 16
21 0 4 -5 3 -12 -4 -7 -7 -27 -12 -45 -12 -31 0 -33 2 -33 36 0 32 -2 35 -22
29 -16 -4 -19 -3 -10 3 12 8 12 13 1 31 -8 11 -19 21 -26 21 -7 0 -13 7 -13
15 0 8 -14 28 -30 45 -17 17 -28 35 -25 40 3 5 -3 18 -15 30 -11 11 -17 20
-13 20 3 0 -2 9 -12 20 -10 11 -25 20 -34 20 -14 0 -14 2 -2 9 12 8 10 12 -11
22 -31 14 -45 39 -22 39 12 0 10 7 -10 31 -14 17 -26 35 -26 39 0 5 -8 6 -17
3 -12 -5 -15 -2 -10 10 4 11 1 17 -8 17 -8 0 -18 12 -21 28 -4 15 -12 33 -18
41 -8 11 -8 13 1 7 9 -5 11 -2 7 9 -4 9 -9 14 -11 11 -7 -7 -36 24 -52 57 -8
15 -18 27 -23 27 -4 0 -8 9 -8 20 0 10 -6 23 -13 27 -23 15 -77 87 -77 105 0
9 -9 20 -20 23 -11 3 -20 11 -20 16 0 6 -7 17 -15 25 -8 8 -11 22 -8 31 4 10
2 14 -5 9 -6 -3 -13 -2 -17 4 -8 14 -25 13 -25 -2 0 -6 3 -8 7 -5 7 7 43 -46
43 -63 0 -6 11 -28 25 -50 14 -22 23 -40 19 -40 -10 0 -34 28 -34 39 0 6 -4
11 -9 11 -5 0 -12 12 -15 26 -4 14 -18 37 -32 51 -13 13 -32 35 -40 49 -9 13
-20 21 -25 18 -9 -5 -13 9 -9 35 1 8 -3 17 -10 21 -14 9 -2 40 13 34 17 -6 41
12 33 25 -11 18 -26 13 -19 -6 6 -16 5 -17 -12 -3 -14 11 -19 12 -22 3 -3 -7
-9 -13 -14 -13 -4 0 -6 7 -3 15 4 11 2 13 -9 9 -8 -3 -18 0 -23 7 -4 8 -3 10
4 5 7 -4 12 -3 12 3 0 5 -6 11 -12 14 -9 3 -7 11 8 27 l22 22 35 -38 c19 -22
92 -115 162 -209 123 -162 166 -223 296 -415 249 -366 272 -395 319 -407 19
-4 82 -5 140 -2 58 4 149 7 203 8 57 0 97 5 97 11 0 6 -39 10 -97 10 -60 0
-93 4 -84 9 7 5 184 8 393 7 315 -1 380 -3 387 -15 9 -14 40 -8 136 24 6 2
-59 4 -144 4 -85 1 -152 3 -150 6 3 2 48 7 100 10 92 5 153 20 144 35 -2 4 21
10 53 14 76 8 131 34 139 66 8 31 31 49 61 50 26 0 30 20 5 21 -14 0 -15 2 -3
6 8 3 23 14 34 25 11 10 25 18 30 18 6 0 2 7 -8 15 -18 14 -18 15 8 25 15 5
35 10 44 10 12 1 10 5 -8 15 -19 11 -21 14 -7 15 20 0 22 18 3 43 -16 21 -30
22 -22 2 3 -9 0 -15 -9 -15 -8 0 -15 2 -15 3 0 2 27 56 59 120 33 64 73 156
91 205 31 87 32 88 66 88 38 0 37 0 25 -24 -5 -9 -28 -78 -51 -152 -24 -74
-53 -158 -66 -187 -12 -28 -27 -78 -34 -110 -6 -32 -27 -104 -46 -161 -20 -57
-33 -108 -30 -115 2 -7 5 -4 5 6 1 11 7 31 15 45 8 15 31 81 52 147 20 66 48
152 61 190 14 39 34 97 45 130 66 192 82 235 105 282 l25 51 67 1 c36 0 67 5
69 11 4 11 42 14 42 2 0 -8 90 -7 345 2 83 3 250 7 373 8 l223 3 -2 -225 c-1
-124 -2 -234 -2 -245 0 -11 8 -54 17 -95 10 -41 19 -80 20 -87 1 -7 5 -16 9
-19 4 -4 7 -22 7 -40 0 -18 4 -35 10 -39 5 -3 7 -12 4 -20 -3 -8 4 -26 15 -41
12 -15 21 -24 21 -20 0 4 10 0 23 -8 12 -8 38 -16 57 -18 l35 -3 1 165 c0 91
-1 155 -3 143 -3 -13 -8 -23 -12 -23 -4 0 -11 -41 -14 -91 -4 -50 -11 -98 -17
-107 -13 -21 -2 245 11 270 5 9 9 25 8 35 -1 13 -3 10 -9 -7 -7 -24 -7 -23
-15 12 -4 20 -4 41 -1 46 3 5 6 133 6 284 l1 275 91 7 c50 3 247 7 437 7 190
1 441 5 556 9 l210 6 -311 2 c-171 1 -467 5 -657 9 l-347 6 0 -25 c0 -29 -24
-81 -33 -72 -3 3 -11 -4 -17 -17 -9 -15 -14 -102 -17 -263 -3 -133 -9 -257
-13 -276 l-8 -35 -2 45 c-2 38 -3 41 -10 20 -6 -19 -8 -10 -9 35 -1 33 -5 66
-10 73 -5 8 -7 -8 -5 -40 l3 -53 -9 50 c-11 66 -11 355 0 355 5 0 11 -37 13
-82 l3 -83 2 98 c1 53 6 97 11 97 9 0 14 32 26 165 5 51 1 75 -28 160 -19 55
-36 107 -38 115 -3 13 25 15 209 18 l212 2 0 25 c0 14 -4 25 -10 25 -5 0 -9
-3 -9 -7 4 -27 -4 -31 -53 -28 -29 3 -71 9 -93 14 l-40 10 41 -3 c23 -2 48 0
55 5 10 6 6 9 -13 9 -15 0 -30 4 -33 10 -4 6 6 7 25 4 18 -4 30 -2 30 4 0 25
-14 42 -35 42 -26 0 -46 21 -27 28 7 2 12 10 12 18 0 9 5 12 10 9 6 -4 8 -10
5 -15 -3 -5 -1 -11 5 -15 6 -4 10 6 10 24 0 17 0 34 1 38 0 4 -5 9 -12 12 -8
2 -10 -2 -6 -12 4 -11 2 -14 -9 -10 -9 3 -14 -2 -14 -16 0 -49 -30 -1 -34 56
-3 29 -16 23 -16 -7 0 -18 -3 -30 -7 -27 -3 4 -6 20 -5 37 0 20 -4 30 -14 30
-8 0 -14 -6 -14 -12 0 -8 -7 -5 -15 6 -14 19 -15 18 -24 -5 l-10 -24 0 24 c-1
21 -5 23 -31 18 -16 -4 -32 -2 -35 3 -4 7 -13 7 -24 0 -10 -5 -21 -6 -25 -3
-11 11 -126 10 -126 -1 0 -6 -6 -4 -13 5 -18 23 -45 30 -59 15 -9 -10 -21 -11
-46 -4 -19 5 -79 7 -134 5 -56 -3 -111 -1 -124 4 -16 6 -24 5 -24 -2 0 -8 -6
-7 -16 2 -10 8 -18 9 -22 2 -10 -14 -75 -9 -80 6 -3 8 -9 6 -19 -6 -14 -17
-14 -17 -10 5 3 12 1 22 -4 22 -5 0 -9 -7 -9 -15 0 -8 -5 -15 -11 -15 -6 0 -8
7 -5 16 3 8 2 12 -3 9 -6 -3 -14 3 -20 12 -10 17 -10 17 -11 1 0 -10 -4 -18
-10 -18 -5 0 -10 -7 -10 -15 0 -9 -6 -12 -15 -8 -18 6 -14 29 4 26 6 -2 11 4
11 12 0 12 -4 13 -19 5 -11 -5 -32 -10 -48 -11 l-28 -1 25 -8 c20 -6 17 -7
-17 -7 -42 1 -63 17 -23 17 22 0 27 16 8 23 -7 2 16 5 52 6 36 1 80 6 99 13
24 7 138 9 370 6 237 -3 318 -2 276 5 -33 5 -85 10 -115 11 -30 0 -60 4 -67 9
-6 4 -14 3 -17 -1 -6 -10 -85 -13 -101 -4 -5 3 -23 5 -40 4 -16 -1 -37 2 -45
8 -13 8 -13 10 3 10 9 0 17 5 17 10 0 6 -6 10 -14 10 -15 0 -43 -29 -30 -32 5
-1 -25 -4 -66 -7 -41 -4 -83 -5 -92 -3 -19 5 -25 32 -8 32 6 0 8 11 4 27 -6
22 -4 25 10 20 14 -6 15 -3 6 13 -10 19 -6 24 13 21 4 0 7 4 7 11 0 6 8 20 18
31 17 20 16 20 -13 13 -23 -6 -27 -5 -18 5 6 6 9 18 6 25 -4 10 0 12 13 8 11
-4 16 -3 11 1 -4 5 0 17 10 27 19 21 11 23 -17 6 -23 -15 -37 -4 -21 16 9 11
9 15 -1 18 -10 4 -11 8 -1 20 7 8 10 18 6 21 -3 4 -1 7 6 7 7 0 9 5 6 10 -4 6
-11 8 -16 5 -14 -9 -11 3 7 30 11 17 12 25 4 25 -7 0 -9 8 -5 21 4 13 3 19 -3
15 -14 -9 -21 86 -9 144 9 48 15 89 10 68 -4 -16 -22 -18 -198 -18 -201 0
-225 -3 -225 -26 0 -8 -4 -14 -10 -14 -5 0 -10 5 -10 11 0 22 -76 41 -175 45
-307 12 -969 11 -1090 -1 -96 -10 -132 -10 -137 -2 -5 8 -9 6 -13 -6 -5 -11
-23 -19 -56 -23 -27 -4 -52 -11 -55 -15 -3 -5 -20 -9 -37 -9 -18 0 -44 -6 -58
-14 -14 -7 -53 -16 -85 -20 -32 -4 -108 -15 -169 -26 -60 -10 -159 -26 -220
-35 -138 -21 -157 -28 -199 -75 -31 -35 -35 -45 -42 -126 -5 -49 -10 -78 -12
-65 -2 15 -7 20 -11 13 -5 -8 -17 -9 -41 -2 -23 7 -38 6 -47 -1 -12 -11 -17
-5 -14 14 2 11 -13 8 -36 -8 -14 -10 -24 -12 -28 -5 -9 15 -25 12 -25 -5 0 -8
-5 -15 -11 -15 -7 0 -9 10 -5 25 4 14 2 25 -4 25 -10 0 -14 -13 -11 -37 3 -21
-17 -24 -24 -3 -8 27 -23 25 -28 -2 -4 -23 -4 -23 -14 2 -10 24 -11 23 -18
-19 -5 -28 -10 -39 -15 -31 -14 22 -33 -67 -35 -160 -1 -47 -3 -89 -5 -95 -8
-28 -4 -151 5 -157 6 -4 2 -8 -7 -8 -10 0 -18 -4 -18 -10 0 -5 5 -10 10 -10 6
0 10 -9 10 -19 0 -11 6 -22 13 -24 7 -4 6 -6 -4 -6 -23 -1 -27 -16 -25 -94 1
-51 -2 -67 -13 -67 -9 0 -12 -8 -9 -25 3 -13 1 -22 -3 -19 -10 6 -58 -23 -77
-46 -10 -13 -11 -13 -6 3 5 13 2 16 -10 11 -16 -6 -20 -17 -17 -42 1 -9 -7
-11 -26 -7 -15 3 -22 2 -15 -1 19 -9 14 -24 -8 -24 -14 0 -20 -7 -20 -22 0
-12 -3 -18 -7 -15 -4 4 -10 134 -14 290 -5 219 -4 284 5 292 40 32 39 82 -2
116 -18 15 -20 35 -26 260 -3 134 -9 500 -12 813 l-7 569 24 -6 c23 -7 410
-65 572 -87 74 -9 150 -12 117 -4 -8 2 -121 20 -250 39 -129 19 -278 41 -330
49 -52 9 -120 16 -152 16 l-56 0 5 -297z m60 -135 c-3 -7 -5 -2 -5 12 0 14 2
19 5 13 2 -7 2 -19 0 -25z m10 -590 c-2 -13 -4 -3 -4 22 0 25 2 35 4 23 2 -13
2 -33 0 -45z m0 -115 c-3 -10 -5 -2 -5 17 0 19 2 27 5 18 2 -10 2 -26 0 -35z
m2481 -52 c17 -31 40 -90 52 -131 12 -41 24 -84 27 -94 4 -13 2 -17 -5 -12
-14 8 -15 5 -6 -19 5 -13 8 -14 15 -3 6 9 9 4 9 -14 0 -21 -5 -28 -20 -28 -23
0 -25 -6 -6 -25 7 -7 25 -12 40 -11 15 2 24 1 21 -2 -2 -3 3 -10 12 -17 15
-11 14 -14 -4 -32 -12 -12 -25 -27 -29 -35 -12 -19 -78 -68 -92 -68 -6 0 -30
20 -53 45 -47 51 -148 105 -193 104 -27 -1 -25 -3 21 -17 60 -20 122 -67 128
-99 2 -12 -4 -28 -15 -38 -25 -23 -139 -54 -172 -48 -14 3 -29 0 -32 -6 -11
-18 -40 -13 -54 9 -7 11 -19 20 -28 20 -13 0 -12 4 3 24 11 15 35 28 63 34
l45 10 -44 1 -44 1 19 23 c10 12 12 16 4 10 -17 -16 -40 -17 -40 -3 0 6 15 17
33 25 26 12 28 14 10 15 -12 0 -25 -4 -28 -10 -3 -5 -10 -10 -16 -10 -19 0 -8
15 23 33 24 14 28 21 19 30 -8 8 -14 9 -19 1 -5 -8 -17 -6 -42 4 -31 13 -33
15 -15 23 17 7 16 8 -7 8 -16 1 -28 4 -28 9 0 4 12 15 28 24 19 12 22 18 10
18 -9 0 -20 -4 -23 -10 -10 -16 -48 -12 -42 4 3 8 1 17 -6 19 -8 3 -3 14 12
31 38 40 17 31 -24 -11 -26 -27 -33 -31 -25 -14 15 30 -1 51 -25 31 -8 -7 -15
-8 -15 -3 0 12 97 105 149 142 24 17 40 31 35 31 -8 0 -50 -32 -143 -108 -23
-19 -38 -27 -35 -18 3 9 1 16 -5 16 -6 0 -19 16 -28 35 -9 19 -25 37 -35 41
-10 3 -18 15 -18 27 0 22 3 22 148 22 87 0 159 5 177 11 17 7 63 24 102 40 40
15 80 35 89 45 16 18 18 18 55 -3 26 -14 47 -38 67 -77z m-1004 7 c-4 -6 -10
-6 -16 0 -6 6 -18 8 -27 5 -13 -4 -13 -3 -2 5 16 12 53 4 45 -10z m36 -18 c0
-5 -2 -10 -4 -10 -3 0 -8 5 -11 10 -3 6 -1 10 4 10 6 0 11 -4 11 -10z m65 -20
c3 -5 1 -10 -4 -10 -6 0 -11 5 -11 10 0 6 2 10 4 10 3 0 8 -4 11 -10z m1790
-140 c3 -5 1 -10 -4 -10 -6 0 -11 5 -11 10 0 6 2 10 4 10 3 0 8 -4 11 -10z
m-2006 -95 c6 -3 11 -10 11 -16 0 -5 -9 0 -20 11 -11 11 -20 28 -19 38 0 13 2
13 9 -4 5 -12 13 -25 19 -29z m631 15 c0 -5 -5 -10 -11 -10 -5 0 -7 5 -4 10 3
6 8 10 11 10 2 0 4 -4 4 -10z m-530 -200 c0 -5 -2 -10 -4 -10 -3 0 -8 5 -11
10 -3 6 -1 10 4 10 6 0 11 -4 11 -10z m590 -34 c0 -2 -7 -7 -16 -10 -8 -3 -12
-2 -9 4 6 10 25 14 25 6z m-609 -43 c-12 -20 -14 -14 -5 12 4 9 9 14 11 11 3
-2 0 -13 -6 -23z m169 7 c0 -5 -2 -10 -4 -10 -3 0 -8 5 -11 10 -3 6 -1 10 4
10 6 0 11 -4 11 -10z m1543 -27 c-7 -2 -21 -2 -30 0 -10 3 -4 5 12 5 17 0 24
-2 18 -5z m-343 -7 c0 -3 -4 -8 -10 -11 -5 -3 -10 -1 -10 4 0 6 5 11 10 11 6
0 10 -2 10 -4z m35 -22 c-8 -9 -20 -12 -26 -9 -6 5 -4 12 8 20 23 17 38 8 18
-11z m215 -3 c0 -4 -7 -8 -15 -8 -16 0 -20 9 -9 20 8 8 24 -1 24 -12z m60 4
c-7 -9 -15 -13 -19 -10 -3 3 1 10 9 15 21 14 24 12 10 -5z m-1636 -10 c3 -8 1
-15 -3 -15 -5 0 -11 7 -15 15 -3 8 -1 15 3 15 5 0 11 -7 15 -15z m1363 -39
c53 -27 67 -65 70 -196 3 -109 2 -113 -11 -75 l-14 40 -3 -60 c-1 -39 -4 -48
-6 -27 -7 52 -21 28 -16 -28 4 -54 -6 -63 -30 -27 -15 21 -16 21 -16 1 -1 -11
4 -25 10 -31 11 -11 2 -63 -12 -63 -5 0 -9 10 -9 22 0 12 -3 18 -7 15 -10 -11
-34 45 -28 67 4 14 3 17 -3 8 -7 -10 -12 -6 -21 16 -7 17 -23 40 -36 52 -13
12 -21 28 -19 34 3 7 -11 18 -31 26 -19 7 -35 18 -35 23 0 4 -7 15 -15 23 -8
9 -15 11 -15 6 0 -13 -35 -21 -51 -11 -7 4 -21 3 -30 -2 -14 -7 -16 -5 -12 11
4 14 0 20 -11 20 -9 0 -16 3 -16 8 0 12 -80 1 -80 -12 0 -6 -5 -3 -11 7 -7 12
-17 15 -35 11 -20 -5 -24 -2 -24 15 0 15 6 21 22 21 16 0 19 3 11 11 -16 16
-43 3 -43 -20 0 -11 -5 -23 -11 -27 -8 -4 -9 0 -4 15 5 15 2 21 -9 21 -9 0
-16 -6 -16 -12 0 -9 -3 -9 -9 1 -14 22 6 56 24 41 10 -9 20 -8 37 1 20 11 20
14 6 17 -10 2 -18 8 -18 13 0 13 34 11 47 -2 14 -14 69 -3 76 15 4 9 34 16 83
21 48 4 72 10 63 15 -8 5 -34 5 -58 0 -25 -4 -52 -5 -60 -1 -28 11 69 19 209
17 103 -2 143 -7 167 -20z m-1357 -1 c0 -8 -4 -15 -9 -15 -13 0 -22 16 -14 24
11 11 23 6 23 -9z m945 6 c-11 -5 -69 -8 -130 -8 l-110 0 90 6 c145 10 172 10
150 2z m-867 -59 c2 -7 -1 -12 -7 -12 -6 0 -11 5 -11 11 0 7 -8 18 -17 26 -16
13 -15 13 6 1 14 -8 27 -20 29 -26z m637 18 c3 -5 1 -10 -4 -10 -6 0 -11 5
-11 10 0 6 2 10 4 10 3 0 8 -4 11 -10z m-725 -20 c0 -5 -7 -10 -15 -10 -8 0
-15 5 -15 10 0 6 7 10 15 10 8 0 15 -4 15 -10z m760 -5 c0 -8 -4 -15 -10 -15
-5 0 -7 7 -4 15 4 8 8 15 10 15 2 0 4 -7 4 -15z m-690 -31 c0 -12 -30 -74 -35
-74 -3 0 -4 4 0 9 3 5 1 12 -5 16 -5 3 -10 2 -10 -3 0 -5 -9 -12 -20 -15 -31
-8 -24 17 10 31 18 8 30 21 30 33 0 12 5 16 15 13 8 -4 15 -8 15 -10z m531 -7
c-10 -9 -11 -8 -5 6 3 10 9 15 12 12 3 -3 0 -11 -7 -18z m2126 1 c-3 -8 -6 -5
-6 6 -1 11 2 17 5 13 3 -3 4 -12 1 -19z m-2710 -3 c0 -8 -4 -15 -9 -15 -4 0
-8 7 -8 15 0 8 4 15 8 15 5 0 9 -7 9 -15z m86 2 c3 -8 -1 -14 -8 -14 -7 0 -11
6 -8 14 3 7 6 13 8 13 2 0 5 -6 8 -13z m657 -8 c0 -11 -25 -10 -60 1 -21 6
-17 7 18 8 23 0 42 -4 42 -9z m1907 -5 c-3 -3 -12 -4 -19 -1 -8 3 -5 6 6 6 11
1 17 -2 13 -5z m-2047 -18 c0 -11 -19 -15 -25 -6 -3 5 1 10 9 10 9 0 16 -2 16
-4z m160 -16 c0 -5 -16 -10 -35 -10 -19 0 -35 5 -35 10 0 6 16 10 35 10 19 0
35 -4 35 -10z m-600 -104 c0 -3 -4 -8 -10 -11 -5 -3 -10 -1 -10 4 0 6 5 11 10
11 6 0 10 -2 10 -4z m159 -17 c-14 -8 -29 -3 -29 11 0 4 9 6 21 3 15 -4 17 -8
8 -14z m91 11 c11 -7 4 -9 -22 -7 -21 2 -41 6 -44 10 -11 11 49 8 66 -3z m365
4 c37 -15 9 -22 -66 -18 -55 3 -86 0 -96 -8 -10 -8 -17 -8 -21 -2 -4 6 -20 11
-37 11 -16 0 -46 1 -65 3 l-35 3 40 7 c52 8 260 11 280 4z m-325 -14 c0 -5 -2
-10 -4 -10 -3 0 -8 5 -11 10 -3 6 -1 10 4 10 6 0 11 -4 11 -10z m684 0 c54
-12 96 -57 106 -111 9 -48 5 -62 -11 -39 -8 11 -9 9 -5 -10 6 -25 6 -25 -5 -2
-15 27 -33 29 -24 2 4 -12 2 -20 -5 -20 -8 0 -10 -10 -8 -25 3 -14 1 -23 -5
-22 -6 1 -15 -17 -20 -40 -6 -24 -16 -43 -22 -43 -9 0 -11 -8 -7 -22 3 -14 2
-19 -6 -14 -8 5 -12 0 -12 -12 0 -12 6 -19 16 -18 9 0 19 -6 21 -14 4 -12 3
-12 -5 -2 -12 18 -23 -7 -15 -37 3 -12 1 -21 -6 -21 -6 0 -12 8 -13 18 0 9 -2
22 -2 29 -1 6 -5 15 -9 19 -4 4 -7 20 -7 34 0 15 -7 33 -15 40 -12 10 -15 10
-15 0 0 -8 -3 -10 -7 -6 -5 4 1 14 11 22 11 8 17 14 13 14 -4 0 -9 -1 -10 -2
-2 -2 -11 3 -21 11 -15 12 -14 15 9 37 28 25 31 34 13 34 -6 0 -20 7 -30 17
-25 22 -36 8 -13 -17 10 -11 14 -20 9 -20 -5 0 -17 9 -26 19 -14 16 -14 22 -4
31 8 5 22 7 32 4 11 -4 16 -3 11 1 -4 5 -23 14 -43 21 -29 10 -35 10 -30 -1 3
-9 0 -12 -9 -9 -18 7 1 41 27 50 10 3 18 10 18 16 0 7 -5 6 -15 -2 -8 -6 -22
-9 -33 -6 -10 3 -27 -1 -38 -9 -18 -16 -18 -16 4 -10 13 4 22 2 22 -4 0 -13 0
-13 -60 -16 -25 -1 -40 0 -33 2 7 2 9 11 6 19 -3 9 1 14 12 14 9 0 15 6 12 13
-2 6 3 20 12 31 15 18 15 18 -6 12 -12 -4 -24 -2 -28 4 -3 6 3 10 14 10 12 0
21 5 21 11 0 5 4 8 9 4 5 -3 12 -1 16 5 11 18 -42 11 -68 -10 -31 -25 -45 -26
-21 -3 16 17 16 18 -7 24 -37 11 261 10 305 -1z m-864 -20 c0 -5 -2 -10 -4
-10 -3 0 -8 5 -11 10 -3 6 -1 10 4 10 6 0 11 -4 11 -10z m416 -37 c-11 -11
-17 4 -9 23 7 18 8 18 11 1 2 -10 1 -21 -2 -24z m123 21 c2 -2 -10 -4 -27 -4
-17 0 -34 4 -37 10 -5 9 53 3 64 -6z m-229 -7 c0 -9 -11 -12 -35 -9 -19 2 -35
8 -35 13 0 5 16 9 35 9 22 0 35 -5 35 -13z m-605 -7 c-3 -5 -13 -10 -21 -10
-8 0 -14 5 -14 10 0 6 9 10 21 10 11 0 17 -4 14 -10z m441 -16 c-11 -8 -25
-14 -30 -13 -6 0 -1 5 12 11 12 6 22 16 22 21 0 6 3 7 7 3 5 -4 -1 -14 -11
-22z m244 17 c0 -4 -11 -6 -25 -3 -14 2 -25 6 -25 8 0 2 11 4 25 4 14 0 25 -4
25 -9z m85 -1 c3 -5 -3 -10 -14 -10 -12 0 -21 5 -21 10 0 6 6 10 14 10 8 0 18
-4 21 -10z m-698 -6 c-3 -3 -12 -4 -19 -1 -8 3 -5 6 6 6 11 1 17 -2 13 -5z
m527 -29 c-7 -16 -24 -21 -24 -6 0 8 7 13 27 20 1 1 0 -6 -3 -14z m-174 -25
c-40 -35 -44 -37 -30 -9 9 16 38 35 59 38 3 1 -11 -12 -29 -29z m303 13 c6 15
67 11 67 -5 0 -5 -6 -8 -12 -7 -24 3 -38 -1 -38 -10 0 -6 15 -7 34 -4 18 3 36
1 40 -5 4 -7 -10 -9 -41 -7 -27 1 -54 -2 -60 -7 -9 -7 -13 -6 -13 3 0 8 -3 25
-6 39 -5 23 -4 24 9 7 12 -14 16 -15 20 -4z m1848 -145 c-8 -82 -8 -81 -8 42
1 87 3 112 8 83 4 -23 4 -79 0 -125z m-3781 142 c0 -5 -4 -10 -10 -10 -5 0
-10 5 -10 10 0 6 5 10 10 10 6 0 10 -4 10 -10z m1697 4 c-3 -3 -12 -4 -19 -1
-8 3 -5 6 6 6 11 1 17 -2 13 -5z m160 0 c-3 -3 -12 -4 -19 -1 -8 3 -5 6 6 6
11 1 17 -2 13 -5z m197 -9 c5 -13 2 -14 -17 -4 -32 17 -33 19 -10 19 12 0 23
-7 27 -15z m-275 -14 c10 -7 10 -10 1 -16 -7 -4 -16 -1 -21 6 -6 10 -9 11 -9
2 0 -16 -36 -17 -46 -1 -4 7 -3 8 4 4 7 -4 20 -2 29 3 22 13 25 13 42 2z m69
-11 c-14 -4 -31 -11 -37 -14 -7 -4 -8 -1 -5 8 4 10 18 16 38 15 l31 -1 -27 -8z
m162 -30 c8 -5 11 -10 5 -10 -5 0 -17 5 -25 10 -8 5 -10 10 -5 10 6 0 17 -5
25 -10z m123 -7 c-7 -2 -19 -2 -25 0 -7 3 -2 5 12 5 14 0 19 -2 13 -5z m37 -3
c0 -5 -5 -10 -11 -10 -5 0 -7 5 -4 10 3 6 8 10 11 10 2 0 4 -4 4 -10z m307
-22 c-3 -8 -6 -5 -6 6 -1 11 2 17 5 13 3 -3 4 -12 1 -19z m1341 -57 c0 -28 -3
-53 -9 -56 -5 -4 -9 19 -9 55 0 73 16 73 18 1z m-1358 16 c0 -11 -1 -18 -3
-16 -1 2 -8 11 -15 20 -9 13 -9 16 3 16 8 0 15 -9 15 -20z m-210 -7 c0 -5 -2
-10 -4 -10 -3 0 -8 5 -11 10 -3 6 -1 10 4 10 6 0 11 -4 11 -10z m287 -32 c-15
-9 -19 -4 -11 16 5 14 9 15 15 5 5 -8 3 -17 -4 -21z m-38 -61 c1 -5 -3 -5 -9
-2 -5 3 -10 16 -9 28 0 21 1 21 9 2 5 -11 9 -24 9 -28z m311 -43 c0 -54 -4
-83 -10 -79 -5 3 -10 42 -10 86 0 46 4 79 10 79 6 0 10 -35 10 -86z m-2754 54
c4 -7 3 -8 -5 -4 -6 4 -33 -6 -59 -21 -55 -34 -86 -47 -77 -33 8 14 107 70
122 70 6 0 15 -5 19 -12z m-456 -45 c0 -6 5 -13 12 -15 19 -7 -1 -28 -27 -28
-18 0 -23 4 -19 15 5 11 -1 15 -25 15 -31 0 -42 14 -18 23 22 9 77 2 77 -10z
m4207 -20 c-3 -10 -5 -4 -5 12 0 17 2 24 5 18 2 -7 2 -21 0 -30z m-1500 -5
c-3 -8 -6 -5 -6 6 -1 11 2 17 5 13 3 -3 4 -12 1 -19z m-2616 -63 c19 -8 27
-14 18 -15 -9 0 -32 7 -50 15 -19 8 -27 14 -18 15 9 0 32 -7 50 -15z m3076
-21 c-3 -3 -12 -4 -19 -1 -8 3 -5 6 6 6 11 1 17 -2 13 -5z m-142 -23 c-3 -5
-19 -12 -35 -16 -33 -7 -34 -9 -21 -33 7 -13 4 -20 -15 -29 -21 -10 -26 -9
-31 4 -9 23 18 66 47 74 37 10 62 10 55 0z m-2938 -32 c8 -8 -5 -57 -48 -183
-56 -160 -107 -305 -124 -351 -7 -16 -5 -18 5 -8 11 10 16 9 26 -5 16 -20 18
-46 4 -37 -5 3 -3 -7 5 -22 8 -15 15 -41 15 -56 0 -16 4 -26 10 -22 14 9 12
-8 -2 -24 -11 -12 -9 -13 7 -8 27 9 -68 -77 -127 -115 -27 -16 -48 -34 -48
-39 0 -12 7 -8 71 38 49 35 64 39 74 23 4 -6 3 -10 -2 -9 -18 3 -33 -2 -33
-11 0 -5 13 -10 29 -10 17 0 32 -4 35 -9 12 -19 -62 -29 -80 -11 -5 5 -15 6
-24 0 -11 -7 -9 -11 13 -19 16 -6 34 -11 42 -11 8 0 16 -4 20 -10 3 -5 25 1
50 15 42 22 45 22 45 5 0 -34 20 -32 21 2 0 32 1 32 10 9 14 -35 4 -51 -28
-49 -49 3 -83 -2 -83 -12 0 -5 3 -9 8 -9 20 3 32 -2 32 -16 0 -9 -6 -12 -15
-9 -11 5 -13 2 -9 -10 3 -9 10 -16 15 -16 5 0 9 -14 9 -31 0 -16 4 -28 9 -25
5 3 14 0 20 -8 9 -10 -13 -13 -126 -15 -90 -1 -138 2 -143 9 -5 7 -11 5 -21
-6 -9 -12 -10 -15 -1 -10 8 5 12 0 12 -13 0 -20 5 -21 145 -21 l146 0 -7 -37
c-14 -81 -89 -140 -221 -173 -42 -11 -79 -20 -83 -20 -7 0 5 110 18 155 7 24
15 31 43 36 30 6 26 10 -13 13 -7 1 -16 5 -19 9 -3 4 -13 5 -23 1 -14 -5 -15
-9 -4 -15 8 -6 9 -12 3 -16 -5 -5 -11 -33 -12 -63 -4 -101 -13 -141 -30 -138
-11 2 -19 -8 -25 -32 -5 -19 -13 -44 -18 -55 -5 -11 -11 -29 -13 -40 -2 -11
-4 8 -3 43 0 35 3 55 6 46 4 -10 16 29 29 92 33 162 34 173 23 187 -10 12 0
59 19 92 3 6 7 32 8 59 1 30 10 60 22 77 10 15 19 39 19 54 0 14 5 35 10 45 6
11 12 41 14 67 2 26 9 62 14 80 6 17 8 33 6 36 -2 2 3 24 11 47 9 24 13 50 11
56 -3 7 1 14 8 17 6 3 21 32 31 66 11 34 24 61 29 61 5 0 -1 8 -12 19 -27 23
-27 27 -2 34 12 3 20 14 20 26 0 12 5 21 10 21 6 0 10 7 10 15 0 8 5 15 11 15
5 0 9 8 8 18 -2 28 1 46 11 62 9 13 11 13 20 0 6 -9 10 -10 10 -3 0 6 -4 15
-10 18 -5 3 -10 18 -9 33 0 24 1 25 9 7 9 -21 13 -13 11 21 -1 11 5 27 13 34
9 7 16 21 16 31 0 14 7 19 28 19 15 0 33 -5 39 -11z m-152 -59 c-9 -28 -19
-50 -21 -48 -2 2 4 27 13 56 9 28 19 50 21 47 2 -2 -4 -27 -13 -55z m-44 -97
c-12 -20 -14 -14 -5 12 4 9 9 14 11 11 3 -2 0 -13 -6 -23z m-30 -90 c-12 -20
-14 -14 -5 12 4 9 9 14 11 11 3 -2 0 -13 -6 -23z m-31 -107 c0 -3 -4 -8 -10
-11 -5 -3 -10 -1 -10 4 0 6 5 11 10 11 6 0 10 -2 10 -4z m-38 -78 c-8 -8 -9
-4 -5 13 4 13 8 18 11 10 2 -7 -1 -18 -6 -23z m4435 -100 c-3 -8 -6 -5 -6 6
-1 11 2 17 5 13 3 -3 4 -12 1 -19z m-3599 -47 c2 -27 -2 -52 -7 -55 -6 -4 -10
10 -9 38 0 24 -3 49 -6 55 -4 6 -1 11 6 11 9 0 14 -17 16 -49z m53 22 c7 -120
7 -144 1 -138 -10 9 -19 165 -9 165 4 0 8 -12 8 -27z m1845 -31 c1 -50 0 -54
-12 -37 -13 17 -14 17 -14 1 0 -29 21 -61 30 -46 4 7 7 -8 6 -34 -1 -36 -5
-46 -18 -46 -10 0 -15 7 -14 18 3 19 -11 57 -32 87 -11 15 -13 16 -9 3 4 -10
2 -20 -3 -23 -6 -4 -10 21 -10 62 l0 68 38 1 37 2 1 -56z m-2783 13 c-3 -9 -8
-14 -10 -11 -3 3 -2 9 2 15 9 16 15 13 8 -4z m-22 -71 c-5 -16 -10 -21 -10
-12 -1 18 10 51 15 45 2 -1 -1 -16 -5 -33z m2876 -70 c-3 -3 -12 -4 -19 -1 -8
3 -5 6 6 6 11 1 17 -2 13 -5z m-710 -110 c-3 -3 -12 -4 -19 -1 -8 3 -5 6 6 6
11 1 17 -2 13 -5z m-1672 -14 c3 -5 -1 -10 -10 -10 -9 0 -13 5 -10 10 3 6 8
10 10 10 2 0 7 -4 10 -10z m1828 3 c-7 -2 -19 -2 -25 0 -7 3 -2 5 12 5 14 0
19 -2 13 -5z m-1803 -23 c-39 -21 -50 -24 -50 -12 0 4 15 13 33 19 50 16 55
14 17 -7z m396 -7 c-4 -9 -1 -22 5 -29 8 -10 8 -14 0 -14 -6 0 -11 -4 -11 -10
0 -17 129 -12 146 5 17 17 74 21 74 5 0 -5 19 -10 43 -10 27 0 37 3 29 9 -19
12 8 21 64 21 24 0 44 5 44 11 0 19 18 -1 79 -90 59 -86 60 -91 41 -101 -14
-8 -26 -8 -41 1 -16 8 -20 8 -14 0 5 -8 -1 -10 -18 -6 -15 4 -28 2 -32 -6 -6
-9 3 -11 36 -6 41 5 43 5 24 -10 -22 -16 2 -17 -542 9 -217 10 -263 14 -263
26 0 11 -12 14 -55 10 l-55 -5 0 74 c0 71 1 74 28 84 15 6 40 11 57 11 22 -1
26 2 15 9 -11 7 -6 8 15 3 23 -4 26 -3 15 5 -17 12 -10 14 15 5 13 -5 14 -8 3
-15 -9 -6 -7 -9 9 -9 12 0 24 -4 28 -9 3 -6 -7 -6 -27 0 -42 12 -44 11 -31 -2
6 -6 42 -13 79 -15 38 -2 81 -8 95 -14 39 -17 122 -9 125 11 2 14 -3 15 -33 7
-19 -5 -40 -7 -46 -5 -12 5 -11 5 48 23 16 5 30 16 31 24 2 28 4 31 15 25 6
-4 8 -14 5 -22z m694 7 c0 -5 -8 -10 -17 -10 -15 0 -16 2 -3 10 19 12 20 12
20 0z m160 -9 c0 -5 -9 -7 -20 -4 -11 3 -20 7 -20 9 0 2 9 4 20 4 11 0 20 -4
20 -9z m-980 -31 c0 -5 -4 -10 -10 -10 -5 0 -10 5 -10 10 0 6 5 10 10 10 6 0
10 -4 10 -10z m-476 -35 c-4 -8 -8 -15 -10 -15 -2 0 -4 7 -4 15 0 8 4 15 10
15 5 0 7 -7 4 -15z m1161 -5 c3 -5 1 -10 -4 -10 -6 0 -11 5 -11 10 0 6 2 10 4
10 3 0 8 -4 11 -10z m-1105 -51 c0 -42 -3 -50 -17 -47 -25 5 -30 68 -5 69 14
1 13 2 -3 7 l-20 5 20 8 c11 4 21 8 23 8 1 1 2 -22 2 -50z m100 -89 c0 -5 -4
-10 -10 -10 -5 0 -10 5 -10 10 0 6 5 10 10 10 6 0 10 -4 10 -10z m1170 -69 c0
-11 -4 -23 -10 -26 -6 -4 -10 5 -10 19 0 14 5 26 10 26 6 0 10 -9 10 -19z
m-1683 -83 c-3 -8 -6 -5 -6 6 -1 11 2 17 5 13 3 -3 4 -12 1 -19z m458 -43 c6
-56 5 -69 -11 -87 -30 -33 -136 -108 -146 -102 -5 3 -7 1 -6 -4 5 -19 -104
-93 -126 -86 -16 4 -17 3 -7 -4 11 -8 5 -15 -27 -31 -23 -12 -44 -21 -46 -21
-3 0 19 31 50 70 31 38 61 67 67 63 6 -3 7 -1 3 5 -8 13 160 232 179 232 7 0
18 7 25 15 25 31 38 17 45 -50z m-191 -37 c-4 -7 -13 -19 -20 -28 -7 -8 -63
-79 -124 -157 -61 -79 -115 -143 -121 -143 -5 0 -9 -7 -9 -15 0 -24 -17 -17
-22 10 -3 14 -1 23 6 22 6 -1 10 7 9 18 -1 11 1 22 5 25 11 8 42 67 42 79 0 6
-6 9 -12 7 -7 -1 -10 -1 -5 1 4 3 7 23 8 46 0 45 17 101 18 63 1 -20 16 -13
16 7 0 7 20 16 45 20 25 5 62 13 82 18 21 5 40 9 43 9 3 0 13 6 21 15 18 18
28 20 18 3z m-429 -171 c-11 -54 -17 -69 -23 -62 -11 10 -8 59 3 68 6 4 1 6
-10 5 -11 0 -29 0 -40 1 l-20 2 20 8 c11 5 33 8 48 9 27 1 28 -1 22 -31z m-25
-121 c-10 -28 -41 -33 -46 -8 -1 7 0 8 3 2 7 -14 23 -12 23 3 0 13 21 39 27
33 2 -2 -1 -15 -7 -30z"/>
<path d="M3570 2591 c0 -14 23 -26 27 -15 2 6 31 9 66 7 45 -2 55 0 37 6 -34
12 -130 13 -130 2z"/>
<path d="M3445 2550 c3 -5 12 -10 20 -10 8 0 17 5 20 10 4 6 -5 10 -20 10 -15
0 -24 -4 -20 -10z"/>
<path d="M3510 2550 c-9 -6 -10 -10 -3 -10 6 0 15 5 18 10 8 12 4 12 -15 0z"/>
<path d="M3358 2513 c6 -2 18 -2 25 0 6 3 1 5 -13 5 -14 0 -19 -2 -12 -5z"/>
<path d="M3364 2472 c3 -20 20 -26 42 -14 14 8 12 11 -14 20 -25 9 -30 8 -28
-6z"/>
<path d="M3745 2310 c3 -5 10 -10 16 -10 5 0 9 5 9 10 0 6 -7 10 -16 10 -8 0
-12 -4 -9 -10z"/>
<path d="M3406 2312 c-12 -11 -5 -24 9 -18 10 4 15 -1 16 -17 0 -21 1 -21 9
-2 5 11 9 23 9 26 1 9 -36 18 -43 11z"/>
<path d="M3490 2310 c-12 -8 -11 -10 8 -10 12 0 22 5 22 10 0 13 -11 13 -30 0z"/>
<path d="M3450 2269 c0 -5 5 -7 10 -4 6 3 10 8 10 11 0 2 -4 4 -10 4 -5 0 -10
-5 -10 -11z"/>
<path d="M3365 2239 c-4 -6 -4 -13 -1 -16 3 -4 6 -1 6 5 0 6 8 13 18 15 15 4
15 5 0 6 -9 0 -20 -4 -23 -10z"/>
<path d="M3599 2224 c6 -25 23 -33 29 -15 2 6 -2 11 -8 11 -7 0 -10 6 -7 13 3
8 -1 14 -8 14 -8 0 -10 -8 -6 -23z"/>
<path d="M3620 2160 c0 -11 5 -20 10 -20 6 0 10 9 10 20 0 11 -4 20 -10 20 -5
0 -10 -9 -10 -20z"/>
<path d="M3550 2143 c1 -19 19 -35 31 -28 11 6 11 5 2 -5 -6 -7 -9 -19 -6 -26
3 -9 -1 -14 -12 -14 -9 0 -13 5 -10 10 3 6 -3 10 -13 10 -11 0 -22 -7 -26 -15
-4 -12 4 -15 45 -15 46 0 50 2 44 20 -4 11 -2 20 4 20 24 0 9 29 -20 39 -38
13 -39 13 -39 4z"/>
<path d="M3555 2030 c-3 -5 3 -10 14 -10 12 0 21 5 21 10 0 6 -6 10 -14 10 -8
0 -18 -4 -21 -10z"/>
<path d="M670 905 c-14 -16 3 -30 24 -18 11 7 12 10 1 20 -10 10 -16 9 -25 -2z"/>
<path d="M597 773 c-4 -3 -7 -11 -7 -17 0 -6 5 -5 12 2 6 6 9 14 7 17 -3 3 -9
2 -12 -2z"/>
<path d="M800 646 c0 -2 7 -7 16 -10 8 -3 12 -2 9 4 -6 10 -25 14 -25 6z"/>
<path d="M733 633 c9 -2 23 -2 30 0 6 3 -1 5 -18 5 -16 0 -22 -2 -12 -5z"/>
<path d="M531 503 c0 -6 -4 -20 -7 -30 -5 -14 -4 -15 5 -7 7 7 11 20 8 30 -3
11 -5 14 -6 7z"/>
<path d="M1080 890 c-13 -8 -12 -10 3 -10 9 0 17 5 17 10 0 12 -1 12 -20 0z"/>
<path d="M1855 880 c-3 -5 1 -10 10 -10 9 0 13 5 10 10 -3 6 -8 10 -10 10 -2
0 -7 -4 -10 -10z"/>
<path d="M1070 802 c0 -4 18 -6 40 -4 22 2 40 6 40 8 0 2 -18 4 -40 4 -22 0
-40 -3 -40 -8z"/>
<path d="M1373 803 c15 -2 37 -2 50 0 12 2 0 4 -28 4 -27 0 -38 -2 -22 -4z"/>
<path d="M1518 803 c18 -2 45 -2 60 0 15 2 0 4 -33 4 -33 0 -45 -2 -27 -4z"/>
<path d="M1783 803 c15 -2 37 -2 50 0 12 2 0 4 -28 4 -27 0 -38 -2 -22 -4z"/>
<path d="M1940 760 c0 -5 5 -10 10 -10 6 0 10 5 10 10 0 6 -4 10 -10 10 -5 0
-10 -4 -10 -10z"/>
<path d="M1347 739 c-21 -12 -13 -29 13 -29 24 0 33 15 17 28 -8 7 -18 7 -30
1z"/>
<path d="M890 799 c0 -5 5 -7 10 -4 6 3 10 8 10 11 0 2 -4 4 -10 4 -5 0 -10
-5 -10 -11z"/>
<path d="M818 413 c-10 -2 -18 -8 -18 -13 0 -5 -3 -17 -6 -27 -6 -17 -6 -17 8
1 8 10 20 16 26 12 7 -4 12 -2 12 5 0 7 11 10 30 7 17 -3 34 0 37 5 3 6 1 7
-5 3 -6 -3 -13 -2 -17 4 -6 10 -35 12 -67 3z"/>
<path d="M775 400 c-3 -5 -1 -10 4 -10 6 0 11 5 11 10 0 6 -2 10 -4 10 -3 0
-8 -4 -11 -10z"/>
<path d="M719 433 c-13 -16 -12 -17 4 -4 16 13 21 21 13 21 -2 0 -10 -8 -17
-17z"/>
<path d="M600 420 l-25 -8 28 -1 c15 -1 27 4 27 9 0 6 -1 10 -2 9 -2 -1 -14
-5 -28 -9z"/>
<path d="M659 393 c-13 -17 -13 -17 6 -3 11 8 22 16 24 17 2 2 0 3 -6 3 -6 0
-17 -8 -24 -17z"/>
<path d="M1615 4384 c38 -7 75 -16 82 -18 8 -3 13 2 13 12 0 15 -11 18 -82 19
l-83 1 70 -14z"/>
<path d="M5298 4393 c7 -3 16 -2 19 1 4 3 -2 6 -13 5 -11 0 -14 -3 -6 -6z"/>
<path d="M1713 4293 c9 -2 23 -2 30 0 6 3 -1 5 -18 5 -16 0 -22 -2 -12 -5z"/>
<path d="M3946 3802 c-11 -2 -26 -10 -34 -18 -7 -8 -20 -14 -27 -14 -16 0 -57
-54 -48 -64 4 -3 -2 -13 -13 -22 -18 -15 -18 -15 3 -9 18 5 22 3 17 -9 -5 -12
-2 -15 10 -10 9 3 16 1 16 -5 0 -6 7 -8 17 -4 11 4 14 3 9 -5 -4 -7 -3 -12 2
-12 5 0 12 -19 16 -42 4 -22 14 -54 24 -70 13 -23 23 -28 52 -27 32 1 33 2 10
9 -14 4 -18 9 -10 9 12 1 12 4 -2 15 -25 19 -23 24 17 32 19 3 32 11 29 16 -3
5 -17 7 -30 4 -39 -10 -27 9 18 29 74 32 126 45 131 32 2 -7 4 5 3 25 -1 20
-4 40 -9 44 -4 4 -7 16 -7 26 0 10 -6 18 -14 18 -7 0 -24 11 -38 23 -14 13
-32 24 -39 25 -8 0 -30 2 -49 4 -19 3 -44 2 -54 0z m-81 -82 c-3 -5 -11 -10
-16 -10 -6 0 -7 5 -4 10 3 6 11 10 16 10 6 0 7 -4 4 -10z"/>
<path d="M4088 3793 c7 -3 16 -2 19 1 4 3 -2 6 -13 5 -11 0 -14 -3 -6 -6z"/>
<path d="M3195 3450 c-3 -5 -1 -10 4 -10 6 0 11 5 11 10 0 6 -2 10 -4 10 -3 0
-8 -4 -11 -10z"/>
<path d="M3249 3453 c-1 -5 -2 -17 -3 -28 -1 -14 -10 -21 -31 -25 -30 -6 -29
-6 10 -13 72 -12 75 -11 75 33 0 36 -2 40 -25 40 -14 0 -25 -3 -26 -7z"/>
<path d="M3340 3454 c0 -2 4 -14 10 -28 l10 -26 172 0 c192 0 300 -9 258 -21
-16 -4 6 -7 56 -8 l82 -1 4 38 c3 20 5 38 4 38 -2 3 -596 10 -596 8z"/>
<path d="M5310 3318 c-1 -2 -1 -66 -2 -143 -2 -142 -5 -155 -47 -212 -27 -37
-76 -44 -68 -11 3 10 1 16 -4 12 -5 -3 -9 -15 -9 -27 -1 -18 -2 -19 -10 -6
-13 23 -5 54 14 53 9 -1 16 2 16 7 0 5 -11 9 -24 9 -16 0 -26 7 -30 23 -11 41
-7 52 19 53 19 2 25 -3 26 -20 0 -20 1 -20 8 -1 8 19 9 19 12 -3 2 -12 9 -22
14 -22 14 1 6 41 -11 61 -20 22 -18 27 14 32 16 2 8 5 -21 6 l-48 1 6 56 c4
36 3 54 -3 50 -6 -4 -8 10 -6 36 l4 43 -17 -40 c-14 -33 -17 -81 -20 -290 -3
-193 0 -255 10 -268 8 -12 30 -19 63 -22 55 -4 98 -20 154 -57 21 -13 30 -16
22 -7 -10 13 -10 18 0 26 20 17 55 25 105 25 25 0 41 3 37 8 -5 5 -49 5 -97 1
l-89 -7 7 41 c4 22 9 60 11 84 5 64 9 72 36 62 13 -4 39 -11 59 -15 31 -5 37
-4 42 14 3 12 0 20 -8 20 -7 0 -15 10 -19 23 -5 20 -11 23 -36 19 -17 -2 -30
-10 -30 -18 0 -8 -10 -14 -22 -14 -13 0 -18 3 -12 8 22 14 21 60 -2 109 -27
55 -29 65 -11 62 6 -2 28 6 48 16 33 16 38 24 48 73 6 30 11 64 11 74 0 22
-23 24 -40 3 -21 -25 -50 -19 -50 11 0 17 -6 28 -19 31 -12 3 -17 11 -14 19 3
8 0 14 -6 14 -6 0 -11 -1 -11 -2z m27 -70 c-3 -7 -5 -2 -5 12 0 14 2 19 5 13
2 -7 2 -19 0 -25z m-166 -139 c-16 -6 -28 -6 -35 1 -7 7 1 10 25 9 32 0 33 -1
10 -10z m-24 -221 c-3 -7 -5 -2 -5 12 0 14 2 19 5 13 2 -7 2 -19 0 -25z m283
18 c0 -8 5 -16 12 -18 23 -8 -17 -15 -42 -7 -16 4 -19 7 -7 8 9 1 16 4 16 9
-3 14 1 22 11 22 6 0 10 -6 10 -14z m-215 -46 c3 -5 1 -10 -4 -10 -6 0 -11 5
-11 10 0 6 2 10 4 10 3 0 8 -4 11 -10z"/>
<path d="M4720 3240 c0 -5 14 -10 30 -10 17 0 30 5 30 10 0 6 -13 10 -30 10
-16 0 -30 -4 -30 -10z"/>
<path d="M5180 3221 c0 -12 5 -21 10 -21 6 0 10 6 10 14 0 8 -4 18 -10 21 -5
3 -10 -3 -10 -14z"/>
<path d="M4650 3196 c-6 -9 -10 -21 -8 -28 3 -8 9 -4 17 10 15 28 9 39 -9 18z"/>
<path d="M5199 3191 c-29 -24 -15 -47 21 -36 18 6 20 9 9 16 -11 7 -10 11 6
23 17 13 17 15 4 16 -9 0 -27 -9 -40 -19z"/>
<path d="M4700 3194 c0 -2 14 -17 30 -33 23 -21 37 -27 53 -23 20 6 20 7 -6
10 -24 3 -28 7 -23 25 4 19 1 22 -24 23 -17 1 -30 0 -30 -2z"/>
<path d="M5155 3050 c-3 -5 -1 -10 4 -10 6 0 11 5 11 10 0 6 -2 10 -4 10 -3 0
-8 -4 -11 -10z"/>
<path d="M5260 3046 c0 -2 7 -6 15 -10 8 -3 15 -1 15 4 0 6 -7 10 -15 10 -8 0
-15 -2 -15 -4z"/>
<path d="M4459 3004 l-24 -27 28 18 c15 9 27 21 27 26 0 14 -5 11 -31 -17z"/>
<path d="M5216 3001 c-9 -13 4 -41 19 -41 8 0 10 9 7 25 -4 25 -16 32 -26 16z"/>
<path d="M5463 2995 c-17 -18 -16 -30 2 -45 12 -10 15 -7 21 15 8 32 -6 49
-23 30z"/>
<path d="M5579 2958 c-6 -15 -5 -68 2 -68 5 0 3 -13 -6 -30 -15 -29 -35 -40
-35 -20 0 6 4 10 9 10 5 0 9 15 8 34 -2 40 -13 38 -22 -3 -3 -16 -12 -32 -19
-34 -8 -3 -15 -23 -17 -45 -4 -33 -2 -38 13 -34 20 5 24 27 8 37 -5 3 -10 10
-10 15 0 6 9 2 20 -7 11 -10 20 -28 20 -40 0 -13 4 -23 9 -23 5 0 11 -9 14
-20 3 -10 0 -18 -5 -17 -6 1 -12 -7 -14 -18 -4 -27 44 -48 69 -30 18 13 24 75
7 75 -5 0 -10 -11 -10 -24 0 -14 -4 -28 -10 -31 -6 -4 -7 1 -3 11 5 13 3 15
-8 9 -12 -8 -12 -6 0 8 10 13 11 20 2 31 -8 10 -9 16 -1 21 5 3 10 13 10 21 0
8 -4 13 -9 10 -8 -5 -5 16 14 85 5 20 2 28 -10 33 -11 4 -14 12 -10 26 4 11 2
20 -4 20 -6 0 -11 -1 -12 -2z"/>
<path d="M5640 2940 c0 -15 6 -32 13 -39 10 -10 7 -16 -11 -29 -19 -15 -22
-25 -20 -67 2 -36 7 -51 19 -53 16 -3 17 0 36 114 3 20 -2 42 -16 65 -20 33
-21 33 -21 9z"/>
<path d="M5490 2926 c0 -4 6 -13 13 -21 11 -11 16 -9 27 9 12 18 11 19 -2 9
-11 -10 -17 -10 -26 -1 -7 7 -12 9 -12 4z"/>
<path d="M5810 2890 c0 -5 5 -10 11 -10 5 0 7 5 4 10 -3 6 -8 10 -11 10 -2 0
-4 -4 -4 -10z"/>
<path d="M5725 2864 c-16 -13 -25 -24 -19 -24 15 0 61 37 54 43 -3 3 -18 -6
-35 -19z"/>
<path d="M5715 2823 c-11 -3 -24 -9 -30 -15 -14 -13 34 -6 60 10 21 12 9 14
-30 5z"/>
<path d="M5671 2746 c-14 -58 -15 -54 17 -58 15 -2 26 -8 25 -15 -2 -7 2 -13
7 -13 15 0 12 16 -5 34 -8 8 -15 32 -15 55 0 54 -15 52 -29 -3z"/>
<path d="M5760 2760 c0 -5 -7 -10 -15 -10 -9 0 -15 -9 -15 -22 l1 -23 19 24
c19 22 26 41 15 41 -3 0 -5 -4 -5 -10z"/>
<path d="M5412 2749 c3 -8 -2 -20 -11 -27 -14 -11 -13 -11 7 -2 24 12 28 25
11 36 -7 4 -10 1 -7 -7z"/>
<path d="M5795 2750 c-3 -5 -2 -10 4 -10 5 0 13 5 16 10 3 6 2 10 -4 10 -5 0
-13 -4 -16 -10z"/>
<path d="M5490 2731 c0 -10 30 -24 37 -17 3 2 -5 9 -16 16 -12 6 -21 7 -21 1z"/>
<path d="M5835 2701 c-3 -5 -1 -12 5 -16 5 -3 10 1 10 9 0 18 -6 21 -15 7z"/>
<path d="M5938 2693 c6 -2 18 -2 25 0 6 3 1 5 -13 5 -14 0 -19 -2 -12 -5z"/>
<path d="M6168 2693 c7 -3 16 -2 19 1 4 3 -2 6 -13 5 -11 0 -14 -3 -6 -6z"/>
<path d="M5747 2677 c-4 -10 4 -13 31 -11 49 3 49 3 32 14 -22 14 -57 12 -63
-3z"/>
<path d="M5551 2654 c-1 -6 6 -17 14 -24 8 -7 15 -25 15 -41 0 -15 5 -31 11
-35 8 -4 9 1 4 16 -5 15 -4 20 4 16 6 -4 11 -3 11 3 0 5 -4 13 -10 16 -5 3
-10 15 -10 27 0 13 -5 18 -14 15 -8 -3 -17 -1 -20 6 -3 8 -5 8 -5 1z"/>
<path d="M5646 2634 c-5 -14 -4 -15 9 -4 17 14 19 20 6 20 -5 0 -12 -7 -15
-16z"/>
<path d="M5790 2625 c0 -9 6 -12 15 -9 8 4 12 10 9 15 -8 14 -24 10 -24 -6z"/>
<path d="M5618 2575 c-3 -16 -1 -25 7 -25 8 0 10 9 7 25 -2 14 -6 25 -7 25 -1
0 -5 -11 -7 -25z"/>
<path d="M5400 2513 c0 -85 6 -117 21 -107 8 5 13 -9 10 -28 0 -5 8 -8 20 -8
11 0 18 4 15 9 -7 10 18 22 37 17 6 -1 9 -1 5 1 -14 8 -9 23 7 23 15 0 19 -11
16 -39 -2 -7 2 -10 8 -6 14 8 14 115 1 135 -8 13 -10 12 -10 -3 0 -10 -4 -15
-10 -12 -5 3 -10 1 -10 -5 0 -7 7 -10 15 -6 11 4 15 -1 15 -19 0 -13 -4 -27
-10 -30 -5 -3 -10 0 -10 9 0 8 -5 16 -12 18 -6 2 -13 24 -15 48 -3 46 -13 69
-13 31 0 -16 -5 -21 -17 -19 -11 2 -17 11 -15 21 2 9 -5 20 -15 24 -10 4 -21
11 -25 17 -4 6 -8 -26 -8 -71z"/>
<path d="M5285 2560 c-3 -5 3 -10 15 -10 12 0 18 5 15 10 -3 6 -10 10 -15 10
-5 0 -12 -4 -15 -10z"/>
<path d="M5569 2508 c4 -32 5 -32 11 -8 7 26 4 40 -9 40 -4 0 -5 -15 -2 -32z"/>
<path d="M5610 2520 c0 -5 5 -10 10 -10 6 0 10 5 10 10 0 6 -4 10 -10 10 -5 0
-10 -4 -10 -10z"/>
<path d="M5731 2514 c0 -11 3 -14 6 -6 3 7 2 16 -1 19 -3 4 -6 -2 -5 -13z"/>
<path d="M5350 2500 c0 -5 5 -10 10 -10 6 0 10 5 10 10 0 6 -4 10 -10 10 -5 0
-10 -4 -10 -10z"/>
<path d="M5750 2370 c0 -5 5 -10 11 -10 5 0 7 5 4 10 -3 6 -8 10 -11 10 -2 0
-4 -4 -4 -10z"/>
<path d="M5431 2344 c0 -11 3 -14 6 -6 3 7 2 16 -1 19 -3 4 -6 -2 -5 -13z"/>
<path d="M5530 2350 c-12 -8 -11 -10 8 -10 12 0 22 5 22 10 0 13 -11 13 -30 0z"/>
<path d="M5468 2333 c7 -3 16 -2 19 1 4 3 -2 6 -13 5 -11 0 -14 -3 -6 -6z"/>
<path d="M5196 1940 c4 -8 18 -29 31 -46 19 -26 28 -30 60 -28 21 2 137 7 258
11 273 9 225 21 -89 22 l-219 1 -25 28 c-13 15 -21 20 -16 12z"/>
<path d="M675 1859 c-4 -6 -5 -12 -2 -15 2 -3 7 2 10 11 7 17 1 20 -8 4z"/>
<path d="M1372 1810 c7 -10 14 -18 15 -16 6 6 -9 36 -18 36 -5 0 -4 -9 3 -20z"/>
<path d="M1405 1789 c-4 -6 -5 -12 -2 -15 2 -3 7 2 10 11 7 17 1 20 -8 4z"/>
<path d="M5212 1660 c0 -14 2 -19 5 -12 2 6 2 18 0 25 -3 6 -5 1 -5 -13z"/>
<path d="M5190 1644 c0 -10 5 -26 10 -34 8 -11 9 -7 4 15 -8 37 -14 45 -14 19z"/>
<path d="M5200 1483 c0 -20 3 -33 8 -29 4 4 7 21 7 37 0 16 -3 29 -7 29 -5 0
-8 -16 -8 -37z"/>
<path d="M3860 1404 c0 -8 5 -12 10 -9 6 3 10 10 10 16 0 5 -4 9 -10 9 -5 0
-10 -7 -10 -16z"/>
<path d="M3895 1400 c3 -5 8 -10 11 -10 2 0 4 5 4 10 0 6 -5 10 -11 10 -5 0
-7 -4 -4 -10z"/>
<path d="M3820 1370 c0 -5 7 -10 15 -10 12 0 13 -4 6 -19 -6 -10 -7 -21 -4
-25 3 -3 1 -6 -5 -6 -7 0 -12 -4 -12 -9 0 -5 12 -8 26 -8 18 0 22 2 13 8 -12
7 -12 12 0 30 12 20 11 24 -5 36 -21 16 -34 17 -34 3z"/>
<path d="M3920 1350 c0 -5 5 -10 10 -10 6 0 10 5 10 10 0 6 -4 10 -10 10 -5 0
-10 -4 -10 -10z"/>
<path d="M4001 1334 c0 -11 3 -14 6 -6 3 7 2 16 -1 19 -3 4 -6 -2 -5 -13z"/>
<path d="M4970 1310 c0 -5 5 -10 10 -10 6 0 10 5 10 10 0 6 -4 10 -10 10 -5 0
-10 -4 -10 -10z"/>
<path d="M4042 1291 c-22 -13 2 -28 26 -15 22 11 22 12 4 16 -11 3 -25 3 -30
-1z"/>
<path d="M4648 1283 c7 -3 16 -2 19 1 4 3 -2 6 -13 5 -11 0 -14 -3 -6 -6z"/>
<path d="M3917 1230 c4 -31 2 -39 -13 -42 -18 -4 -18 -4 1 -15 18 -10 20 -8
22 20 1 17 7 35 13 41 15 15 12 23 -9 29 -17 4 -18 0 -14 -33z"/>
<path d="M3780 1250 c0 -5 5 -10 10 -10 6 0 10 5 10 10 0 6 -4 10 -10 10 -5 0
-10 -4 -10 -10z"/>
<path d="M1820 1240 c1 -16 27 -56 34 -49 2 2 -5 18 -15 34 -11 17 -19 23 -19
15z"/>
<path d="M3831 1241 c-9 -6 -10 -11 -2 -15 6 -4 11 -3 11 2 0 6 10 5 25 -1 14
-7 25 -16 25 -20 0 -5 5 -5 11 -2 7 5 4 14 -7 26 -18 20 -41 24 -63 10z"/>
<path d="M4961 1234 c0 -11 3 -14 6 -6 3 7 2 16 -1 19 -3 4 -6 -2 -5 -13z"/>
<path d="M4061 1214 c0 -11 3 -14 6 -6 3 7 2 16 -1 19 -3 4 -6 -2 -5 -13z"/>
<path d="M4130 1215 c0 -8 4 -15 10 -15 5 0 7 7 4 15 -4 8 -8 15 -10 15 -2 0
-4 -7 -4 -15z"/>
<path d="M3830 1190 c0 -14 5 -18 16 -13 11 4 12 8 4 13 -9 6 -9 9 1 13 10 4
9 6 -3 6 -12 1 -18 -6 -18 -19z"/>
<path d="M3961 1176 c-17 -20 5 -31 24 -12 8 8 15 17 15 20 0 12 -28 6 -39 -8z"/>
<path d="M3795 1160 c-3 -5 1 -10 9 -10 9 0 16 5 16 10 0 6 -4 10 -9 10 -6 0
-13 -4 -16 -10z"/>
<path d="M3756 1141 c-4 -7 -5 -15 -2 -18 9 -9 19 4 14 18 -4 11 -6 11 -12 0z"/>
<path d="M3794 1103 c-2 -29 8 -29 22 0 8 18 7 23 -5 23 -10 0 -17 -10 -17
-23z"/>
<path d="M4955 1120 c3 -5 11 -10 16 -10 6 0 7 5 4 10 -3 6 -11 10 -16 10 -6
0 -7 -4 -4 -10z"/>
<path d="M3930 1110 c0 -5 5 -10 11 -10 5 0 7 5 4 10 -3 6 -8 10 -11 10 -2 0
-4 -4 -4 -10z"/>
<path d="M2848 913 c7 -3 16 -2 19 1 4 3 -2 6 -13 5 -11 0 -14 -3 -6 -6z"/>
<path d="M2588 903 c6 -2 18 -2 25 0 6 3 1 5 -13 5 -14 0 -19 -2 -12 -5z"/>
<path d="M3530 893 c0 -10 -3 -29 -5 -43 -3 -16 0 -12 9 10 18 43 19 50 6 50
-5 0 -10 -8 -10 -17z"/>
<path d="M3265 870 c3 -5 8 -10 11 -10 2 0 4 5 4 10 0 6 -5 10 -11 10 -5 0 -7
-4 -4 -10z"/>
<path d="M3716 801 c-4 -5 3 -7 14 -4 23 6 26 13 6 13 -8 0 -17 -4 -20 -9z"/>
<path d="M3492 770 c0 -14 2 -19 5 -12 2 6 2 18 0 25 -3 6 -5 1 -5 -13z"/>
<path d="M3481 724 c0 -11 3 -14 6 -6 3 7 2 16 -1 19 -3 4 -6 -2 -5 -13z"/>
<path d="M266 661 c-3 -5 -65 -48 -136 -97 -89 -59 -129 -92 -125 -102 3 -7 5
-18 5 -23 0 -5 5 -9 11 -9 6 0 9 6 6 14 -7 18 3 28 17 18 6 -5 22 -3 36 4 18
10 20 14 8 14 -9 0 -20 5 -24 12 -5 8 -2 9 10 5 9 -4 15 -3 12 2 -4 5 30 35
75 68 106 76 137 102 122 103 -6 0 -14 -4 -17 -9z"/>
<path d="M1120 638 c0 -3 -9 -10 -20 -13 -23 -7 -27 -25 -5 -25 8 0 15 5 15
11 0 5 5 7 12 3 7 -4 8 -3 4 4 -5 9 9 12 50 12 32 0 55 3 51 6 -8 9 -107 11
-107 2z"/>
<path d="M3450 639 c0 -5 5 -7 10 -4 6 3 10 8 10 11 0 2 -4 4 -10 4 -5 0 -10
-5 -10 -11z"/>
<path d="M3426 603 c-4 -9 -1 -20 6 -25 19 -11 1080 -10 1098 2 10 7 -120 8
-380 5 -411 -4 -601 1 -565 17 12 5 -9 6 -52 2 -49 -3 -73 -2 -73 5 0 17 -27
13 -34 -6z"/>
<path d="M4668 583 c17 -2 47 -2 65 0 17 2 3 4 -33 4 -36 0 -50 -2 -32 -4z"/>
<path d="M4898 583 c12 -2 32 -2 45 0 12 2 2 4 -23 4 -25 0 -35 -2 -22 -4z"/>
<path d="M208 483 c7 -3 16 -2 19 1 4 3 -2 6 -13 5 -11 0 -14 -3 -6 -6z"/>
<path d="M996 423 c-6 -14 -5 -15 5 -6 7 7 10 15 7 18 -3 3 -9 -2 -12 -12z"/>
<path d="M1078 423 c23 -2 59 -2 80 0 20 2 1 4 -43 4 -44 0 -61 -2 -37 -4z"/>
<path d="M1200 420 c0 -6 33 -9 83 -9 77 2 79 2 32 9 -72 12 -115 11 -115 0z"/>
<path d="M10 380 c-11 -7 -7 -10 18 -10 17 0 32 5 32 10 0 13 -30 13 -50 0z"/>
<path d="M278 383 c7 -3 16 -2 19 1 4 3 -2 6 -13 5 -11 0 -14 -3 -6 -6z"/>
<path d="M1133 383 c9 -2 23 -2 30 0 6 3 -1 5 -18 5 -16 0 -22 -2 -12 -5z"/>
<path d="M2000 370 c0 -5 9 -10 20 -10 11 0 20 5 20 10 0 6 -9 10 -20 10 -11
0 -20 -4 -20 -10z"/>
<path d="M1128 353 c7 -3 16 -2 19 1 4 3 -2 6 -13 5 -11 0 -14 -3 -6 -6z"/>
<path d="M20 275 c-13 -14 -19 -25 -14 -25 6 0 20 11 32 25 12 14 18 25 14 25
-5 0 -19 -11 -32 -25z"/>
<path d="M2775 240 c3 -5 10 -10 16 -10 5 0 9 5 9 10 0 6 -7 10 -16 10 -8 0
-12 -4 -9 -10z"/>
</g>
</svg>
