<svg width="328" height="54" id="Layer_1" data-name="Layer 1" xmlns="http://www.w3.org/2000/svg" viewBox="0 0 202.5 49.46"><defs><style>.cls-1{fill:none;stroke:#fff;stroke-miterlimit:10;}.cls-2,.cls-3{fill:#fff;}.cls-3{font-size:16.19px;font-family:Lato-Bold, Lato;font-weight:700;}</style></defs><title>logo</title><path class="cls-1" d="M52.46,30.59A24.23,24.23,0,1,1,28.23,6.36,24.23,24.23,0,0,1,52.46,30.59Z" transform="translate(-3.5 -5.86)"/><path class="cls-2" d="M27.67,47.41s4-1.48,4.09-1.54a1,1,0,0,1,1.09.1,1.29,1.29,0,0,1,.29,1.85,3.73,3.73,0,0,1-2.2,2A2.85,2.85,0,0,1,27.58,49s-.77-.74-.41-1.26a.69.69,0,0,1,.23-.18A2.29,2.29,0,0,0,27.67,47.41Z" transform="translate(-3.5 -5.86)"/><path class="cls-2" d="M25,45.36s-1,.36-.16,1.23a.59.59,0,0,0,.8.12l2-.82,4.1-1.6,1.82-.72s.42-.2.43-.56.06-1.07-.87-.86l-1.88.72-3.86,1.48Z" transform="translate(-3.5 -5.86)"/><path class="cls-2" d="M23.73,43s-.51.28-.59.51a.59.59,0,0,0,.13.74.7.7,0,0,0,.59.24.78.78,0,0,0,.43-.16,1.88,1.88,0,0,1,.25-.16,6,6,0,0,1,.84-.42s1.14-.51,1.45-.59c0,0,2-.71,2.3-.78l2-.59s1-.35,1.05-.4a7.18,7.18,0,0,0,.84-.42.69.69,0,0,0,.29-.54.57.57,0,0,0-.42-.65l-1.58-.29s-3.2-.5-3.46-.51c0,0-1.17-.08-1.37-.07,0,0-1.92,0-2.07.06l-.45.06s-.54.06-.49.79c0,.18,0,.46.5.53l.29,0s1.12-.11,1.34-.11a15.88,15.88,0,0,1,2.17.1s1.4.14,1.8.23l1.16.22-1.53.29s-2,.47-2.88.69c0,0-1.07.38-1.06.4S23.82,43,23.73,43Z" transform="translate(-3.5 -5.86)"/><path class="cls-2" d="M25.47,35.62S28,36,28.23,36c.67,0,2-.14,2.68-.18s1.95,0,2.16.94c.1.43.38,1.35-1.08,1.4-1,0-3.46-.31-3.88-.28l-3.68-.08a1.3,1.3,0,0,1-1-1.6,13.39,13.39,0,0,0-1.49.08,13,13,0,0,1-1.4.12,2.39,2.39,0,0,1-2.61-1.76,4.44,4.44,0,0,1-.19-2.08c0-.39.18-1.14.19-1.53a1.29,1.29,0,0,0-.79-1.28s-1.35-.79-1.24-1.8a2,2,0,0,1,.48-1.32c.48-.56,1.51-1.63,1.92-2.24A8.68,8.68,0,0,0,19.38,22c.19-.84.43-2.31.56-3.4a11.37,11.37,0,0,1,.76-3.24c.66-1.11,1-2.57,3.8-3.48a10.06,10.06,0,0,1,7.21,0,12,12,0,0,1,5,2.6,9.56,9.56,0,0,1,3.16,11.17c-.83,2.23-2.08,5.32-6.25,7.16,0,0-3.4,1.7-5.43,1.25-.28-.07-.65-.22-.62-1A1.11,1.11,0,0,1,28.2,32c.31-.13.25-.18,1.33-.24a10.68,10.68,0,0,0,2.76-.78,10.82,10.82,0,0,0,1.84-1s1.32-1.14,1.5-1.38A11.28,11.28,0,0,0,37,26.62a11.62,11.62,0,0,0,1.23-3.18s.5-2.77-.57-4.54a8.88,8.88,0,0,0-2.22-2.61,10.5,10.5,0,0,0-1.42-1,13.66,13.66,0,0,0-2.34-1.08s-5.63-2.52-8.28,1a5.51,5.51,0,0,0-1.09,2.58c-.06.68-.25,2.07-.32,2.7a.41.41,0,0,1,0,.12A11.65,11.65,0,0,1,21,24c-.43.75-1.59,2.52-1.92,2.91s-.84,1-.84,1a3,3,0,0,1,.78.54,3.88,3.88,0,0,1,1,2.76c-.06.52-.09,1.5-.21,2.07,0,0-.07,1,.69.88a2.52,2.52,0,0,1,.28,0L22.44,34a5.78,5.78,0,0,1,1.93.21C24.83,34.27,25.61,35,25.47,35.62Z" transform="translate(-3.5 -5.86)"/><path class="cls-2" d="M27,25.16s-5.34-2.59-2-5.95c0,0,1.11-1.17,4.06-1.32a10,10,0,0,1,5.57,1.46,4.66,4.66,0,0,1,1.87,3.19s0,4.12-7,3.37c0,0-4.09,3.12-5.62,3.63C23.9,29.54,27.23,26.33,27,25.16Z" transform="translate(-3.5 -5.86)"/><text class="cls-3" transform="translate(57.36 32.32)">Professional English</text></svg>